<svg xmlns="http://www.w3.org/2000/svg" xmlns:xlink="http://www.w3.org/1999/xlink" width="500" zoomAndPan="magnify" viewBox="0 0 375 374.999991" height="500" preserveAspectRatio="xMidYMid meet" version="1.0"><defs><g/><clipPath id="bad41dcb22"><path d="M 131.25 125.230469 L 243.75 125.230469 L 243.75 237.730469 L 131.25 237.730469 Z M 131.25 125.230469 " clip-rule="nonzero"/></clipPath><clipPath id="68dad1e232"><path d="M 187.5 125.230469 C 156.433594 125.230469 131.25 150.414062 131.25 181.480469 C 131.25 212.546875 156.433594 237.730469 187.5 237.730469 C 218.566406 237.730469 243.75 212.546875 243.75 181.480469 C 243.75 150.414062 218.566406 125.230469 187.5 125.230469 Z M 187.5 125.230469 " clip-rule="nonzero"/></clipPath><clipPath id="f837029e33"><path d="M 0.25 0.230469 L 112.75 0.230469 L 112.75 112.730469 L 0.25 112.730469 Z M 0.25 0.230469 " clip-rule="nonzero"/></clipPath><clipPath id="452ef6530b"><path d="M 56.5 0.230469 C 25.433594 0.230469 0.25 25.414062 0.25 56.480469 C 0.25 87.546875 25.433594 112.730469 56.5 112.730469 C 87.566406 112.730469 112.75 87.546875 112.75 56.480469 C 112.75 25.414062 87.566406 0.230469 56.5 0.230469 Z M 56.5 0.230469 " clip-rule="nonzero"/></clipPath><clipPath id="07ef6e50e1"><rect x="0" width="113" y="0" height="113"/></clipPath><clipPath id="620517b827"><path d="M 175.550781 105.347656 L 199.574219 105.347656 L 199.574219 129.371094 L 175.550781 129.371094 Z M 175.550781 105.347656 " clip-rule="nonzero"/></clipPath><clipPath id="df2a0a0b3e"><path d="M 187.5625 105.347656 C 180.925781 105.347656 175.550781 110.722656 175.550781 117.359375 C 175.550781 123.992188 180.925781 129.371094 187.5625 129.371094 C 194.195312 129.371094 199.574219 123.992188 199.574219 117.359375 C 199.574219 110.722656 194.195312 105.347656 187.5625 105.347656 Z M 187.5625 105.347656 " clip-rule="nonzero"/></clipPath><clipPath id="1e5bfa57cf"><path d="M 0.550781 0.347656 L 24.574219 0.347656 L 24.574219 24.371094 L 0.550781 24.371094 Z M 0.550781 0.347656 " clip-rule="nonzero"/></clipPath><clipPath id="d2d635558a"><path d="M 12.5625 0.347656 C 5.925781 0.347656 0.550781 5.722656 0.550781 12.359375 C 0.550781 18.992188 5.925781 24.371094 12.5625 24.371094 C 19.195312 24.371094 24.574219 18.992188 24.574219 12.359375 C 24.574219 5.722656 19.195312 0.347656 12.5625 0.347656 Z M 12.5625 0.347656 " clip-rule="nonzero"/></clipPath><clipPath id="d70df10264"><rect x="0" width="25" y="0" height="25"/></clipPath></defs><g fill="#ffffff" fill-opacity="1"><g transform="translate(83.985145, 230.997122)"><g><path d="M 11.96875 -89.1875 L 50.96875 -89.1875 C 60.476562 -89.1875 68.925781 -87.335938 76.3125 -83.640625 C 83.707031 -79.941406 89.441406 -74.71875 93.515625 -67.96875 C 97.585938 -61.21875 99.625 -53.425781 99.625 -44.59375 C 99.625 -35.757812 97.585938 -27.960938 93.515625 -21.203125 C 89.441406 -14.453125 83.707031 -9.226562 76.3125 -5.53125 C 68.925781 -1.84375 60.476562 0 50.96875 0 L 11.96875 0 Z M 50.203125 -14.015625 C 56.742188 -14.015625 62.5 -15.265625 67.46875 -17.765625 C 72.4375 -20.273438 76.253906 -23.84375 78.921875 -28.46875 C 81.597656 -33.101562 82.9375 -38.476562 82.9375 -44.59375 C 82.9375 -50.707031 81.597656 -56.078125 78.921875 -60.703125 C 76.253906 -65.335938 72.4375 -68.90625 67.46875 -71.40625 C 62.5 -73.914062 56.742188 -75.171875 50.203125 -75.171875 L 28.53125 -75.171875 L 28.53125 -14.015625 Z M 50.203125 -14.015625 "/></g></g></g><g fill="#ffffff" fill-opacity="1"><g transform="translate(214.311647, 230.997122)"><g><path d="M 30.0625 -75.171875 L 0.515625 -75.171875 L 0.515625 -89.1875 L 76.1875 -89.1875 L 76.1875 -75.171875 L 46.625 -75.171875 L 46.625 0 L 30.0625 0 Z M 30.0625 -75.171875 "/></g></g></g><g clip-path="url(#bad41dcb22)"><g clip-path="url(#68dad1e232)"><g transform="matrix(1, 0, 0, 1, 131, 125)"><g clip-path="url(#07ef6e50e1)"><g clip-path="url(#f837029e33)"><g clip-path="url(#452ef6530b)"><path fill="#0c0c0c" d="M 0.25 0.230469 L 112.75 0.230469 L 112.75 112.730469 L 0.25 112.730469 Z M 0.25 0.230469 " fill-opacity="1" fill-rule="nonzero"/></g></g></g></g></g></g><g fill="#ffffff" fill-opacity="1"><g transform="translate(134.595977, 226.855452)"><g><path d="M 53.765625 1.53125 C 44.503906 1.53125 36.15625 -0.460938 28.71875 -4.453125 C 21.289062 -8.453125 15.472656 -13.953125 11.265625 -20.953125 C 7.066406 -27.960938 4.96875 -35.84375 4.96875 -44.59375 C 4.96875 -53.34375 7.066406 -61.21875 11.265625 -68.21875 C 15.472656 -75.226562 21.289062 -80.726562 28.71875 -84.71875 C 36.15625 -88.71875 44.503906 -90.71875 53.765625 -90.71875 C 63.023438 -90.71875 71.347656 -88.71875 78.734375 -84.71875 C 86.128906 -80.726562 91.945312 -75.226562 96.1875 -68.21875 C 100.4375 -61.21875 102.5625 -53.34375 102.5625 -44.59375 C 102.5625 -35.84375 100.4375 -27.960938 96.1875 -20.953125 C 91.945312 -13.953125 86.128906 -8.453125 78.734375 -4.453125 C 71.347656 -0.460938 63.023438 1.53125 53.765625 1.53125 Z M 53.765625 -16.046875 C 59.035156 -16.046875 63.789062 -17.253906 68.03125 -19.671875 C 72.28125 -22.097656 75.613281 -25.476562 78.03125 -29.8125 C 80.457031 -34.144531 81.671875 -39.070312 81.671875 -44.59375 C 81.671875 -50.113281 80.457031 -55.039062 78.03125 -59.375 C 75.613281 -63.707031 72.28125 -67.082031 68.03125 -69.5 C 63.789062 -71.914062 59.035156 -73.125 53.765625 -73.125 C 48.492188 -73.125 43.734375 -71.914062 39.484375 -69.5 C 35.242188 -67.082031 31.910156 -63.707031 29.484375 -59.375 C 27.066406 -55.039062 25.859375 -50.113281 25.859375 -44.59375 C 25.859375 -39.070312 27.066406 -34.144531 29.484375 -29.8125 C 31.910156 -25.476562 35.242188 -22.097656 39.484375 -19.671875 C 43.734375 -17.253906 48.492188 -16.046875 53.765625 -16.046875 Z M 53.765625 -16.046875 "/></g></g></g><g clip-path="url(#620517b827)"><g clip-path="url(#df2a0a0b3e)"><g transform="matrix(1, 0, 0, 1, 175, 105)"><g clip-path="url(#d70df10264)"><g clip-path="url(#1e5bfa57cf)"><g clip-path="url(#d2d635558a)"><path fill="#0088d6" d="M 0.550781 0.347656 L 24.574219 0.347656 L 24.574219 24.371094 L 0.550781 24.371094 Z M 0.550781 0.347656 " fill-opacity="1" fill-rule="nonzero"/></g></g></g></g></g></g><g fill="#ffffff" fill-opacity="1"><g transform="translate(97.100916, 264.967965)"><g><path d="M 1.4375 -14.4375 L 8.265625 -14.4375 C 9.847656 -14.4375 11.25 -14.140625 12.46875 -13.546875 C 13.695312 -12.953125 14.644531 -12.113281 15.3125 -11.03125 C 15.988281 -9.945312 16.328125 -8.675781 16.328125 -7.21875 C 16.328125 -5.757812 15.988281 -4.488281 15.3125 -3.40625 C 14.644531 -2.320312 13.695312 -1.484375 12.46875 -0.890625 C 11.25 -0.296875 9.847656 0 8.265625 0 L 1.4375 0 Z M 8.109375 -3.265625 C 9.347656 -3.265625 10.335938 -3.613281 11.078125 -4.3125 C 11.828125 -5.007812 12.203125 -5.976562 12.203125 -7.21875 C 12.203125 -8.457031 11.828125 -9.425781 11.078125 -10.125 C 10.335938 -10.820312 9.347656 -11.171875 8.109375 -11.171875 L 5.53125 -11.171875 L 5.53125 -3.265625 Z M 8.109375 -3.265625 "/></g></g></g><g fill="#ffffff" fill-opacity="1"><g transform="translate(118.409276, 264.967965)"><g><path d="M 8.71875 0.28125 C 7.195312 0.28125 5.828125 -0.0390625 4.609375 -0.6875 C 3.390625 -1.332031 2.429688 -2.222656 1.734375 -3.359375 C 1.046875 -4.503906 0.703125 -5.789062 0.703125 -7.21875 C 0.703125 -8.644531 1.046875 -9.925781 1.734375 -11.0625 C 2.429688 -12.207031 3.390625 -13.101562 4.609375 -13.75 C 5.828125 -14.394531 7.195312 -14.71875 8.71875 -14.71875 C 10.25 -14.71875 11.625 -14.394531 12.84375 -13.75 C 14.0625 -13.101562 15.015625 -12.207031 15.703125 -11.0625 C 16.398438 -9.925781 16.75 -8.644531 16.75 -7.21875 C 16.75 -5.789062 16.398438 -4.503906 15.703125 -3.359375 C 15.015625 -2.222656 14.0625 -1.332031 12.84375 -0.6875 C 11.625 -0.0390625 10.25 0.28125 8.71875 0.28125 Z M 8.71875 -3.09375 C 9.445312 -3.09375 10.109375 -3.265625 10.703125 -3.609375 C 11.296875 -3.953125 11.765625 -4.4375 12.109375 -5.0625 C 12.453125 -5.6875 12.625 -6.40625 12.625 -7.21875 C 12.625 -8.03125 12.453125 -8.75 12.109375 -9.375 C 11.765625 -10 11.296875 -10.484375 10.703125 -10.828125 C 10.109375 -11.171875 9.445312 -11.34375 8.71875 -11.34375 C 7.988281 -11.34375 7.328125 -11.171875 6.734375 -10.828125 C 6.148438 -10.484375 5.6875 -10 5.34375 -9.375 C 5 -8.75 4.828125 -8.03125 4.828125 -7.21875 C 4.828125 -6.40625 5 -5.6875 5.34375 -5.0625 C 5.6875 -4.4375 6.148438 -3.953125 6.734375 -3.609375 C 7.328125 -3.265625 7.988281 -3.09375 8.71875 -3.09375 Z M 8.71875 -3.09375 "/></g></g></g><g fill="#ffffff" fill-opacity="1"><g transform="translate(139.923801, 264.967965)"><g><path d="M 4.515625 -11.203125 L 0.078125 -11.203125 L 0.078125 -14.4375 L 13.015625 -14.4375 L 13.015625 -11.203125 L 8.59375 -11.203125 L 8.59375 0 L 4.515625 0 Z M 4.515625 -11.203125 "/></g></g></g><g fill="#ffffff" fill-opacity="1"><g transform="translate(165.06635, 264.967965)"><g><path d="M 6.375 0.171875 C 5.289062 0.171875 4.242188 0.00390625 3.234375 -0.328125 C 2.222656 -0.671875 1.425781 -1.113281 0.84375 -1.65625 L 1.609375 -3.265625 C 2.160156 -2.765625 2.863281 -2.359375 3.71875 -2.046875 C 4.582031 -1.742188 5.46875 -1.59375 6.375 -1.59375 C 7.570312 -1.59375 8.460938 -1.796875 9.046875 -2.203125 C 9.640625 -2.609375 9.9375 -3.144531 9.9375 -3.8125 C 9.9375 -4.3125 9.773438 -4.710938 9.453125 -5.015625 C 9.128906 -5.328125 8.726562 -5.566406 8.25 -5.734375 C 7.78125 -5.898438 7.113281 -6.085938 6.25 -6.296875 C 5.164062 -6.554688 4.289062 -6.816406 3.625 -7.078125 C 2.957031 -7.335938 2.382812 -7.738281 1.90625 -8.28125 C 1.4375 -8.820312 1.203125 -9.554688 1.203125 -10.484375 C 1.203125 -11.242188 1.398438 -11.929688 1.796875 -12.546875 C 2.203125 -13.171875 2.816406 -13.671875 3.640625 -14.046875 C 4.472656 -14.421875 5.5 -14.609375 6.71875 -14.609375 C 7.570312 -14.609375 8.410156 -14.492188 9.234375 -14.265625 C 10.066406 -14.046875 10.773438 -13.734375 11.359375 -13.328125 L 10.6875 -11.671875 C 10.082031 -12.054688 9.4375 -12.347656 8.75 -12.546875 C 8.0625 -12.742188 7.382812 -12.84375 6.71875 -12.84375 C 5.550781 -12.84375 4.675781 -12.628906 4.09375 -12.203125 C 3.507812 -11.785156 3.21875 -11.238281 3.21875 -10.5625 C 3.21875 -10.0625 3.378906 -9.65625 3.703125 -9.34375 C 4.035156 -9.039062 4.445312 -8.800781 4.9375 -8.625 C 5.425781 -8.457031 6.09375 -8.273438 6.9375 -8.078125 C 8.019531 -7.816406 8.890625 -7.554688 9.546875 -7.296875 C 10.210938 -7.035156 10.78125 -6.632812 11.25 -6.09375 C 11.726562 -5.5625 11.96875 -4.84375 11.96875 -3.9375 C 11.96875 -3.1875 11.757812 -2.492188 11.34375 -1.859375 C 10.925781 -1.234375 10.296875 -0.738281 9.453125 -0.375 C 8.617188 -0.0078125 7.59375 0.171875 6.375 0.171875 Z M 6.375 0.171875 "/></g></g></g><g fill="#ffffff" fill-opacity="1"><g transform="translate(181.940274, 264.967965)"><g><path d="M 5.03125 -12.640625 L 0.078125 -12.640625 L 0.078125 -14.4375 L 12.03125 -14.4375 L 12.03125 -12.640625 L 7.078125 -12.640625 L 7.078125 0 L 5.03125 0 Z M 5.03125 -12.640625 "/></g></g></g><g fill="#ffffff" fill-opacity="1"><g transform="translate(198.051047, 264.967965)"><g><path d="M 8.140625 0.171875 C 6.222656 0.171875 4.726562 -0.378906 3.65625 -1.484375 C 2.582031 -2.585938 2.046875 -4.171875 2.046875 -6.234375 L 2.046875 -14.4375 L 4.109375 -14.4375 L 4.109375 -6.3125 C 4.109375 -3.21875 5.460938 -1.671875 8.171875 -1.671875 C 9.484375 -1.671875 10.488281 -2.050781 11.1875 -2.8125 C 11.894531 -3.570312 12.25 -4.738281 12.25 -6.3125 L 12.25 -14.4375 L 14.25 -14.4375 L 14.25 -6.234375 C 14.25 -4.148438 13.710938 -2.5625 12.640625 -1.46875 C 11.566406 -0.375 10.066406 0.171875 8.140625 0.171875 Z M 8.140625 0.171875 "/></g></g></g><g fill="#ffffff" fill-opacity="1"><g transform="translate(218.637525, 264.967965)"><g><path d="M 2.171875 -14.4375 L 8.25 -14.4375 C 9.78125 -14.4375 11.132812 -14.132812 12.3125 -13.53125 C 13.5 -12.925781 14.414062 -12.078125 15.0625 -10.984375 C 15.71875 -9.890625 16.046875 -8.632812 16.046875 -7.21875 C 16.046875 -5.800781 15.71875 -4.546875 15.0625 -3.453125 C 14.414062 -2.359375 13.5 -1.507812 12.3125 -0.90625 C 11.132812 -0.300781 9.78125 0 8.25 0 L 2.171875 0 Z M 8.125 -1.796875 C 9.289062 -1.796875 10.316406 -2.019531 11.203125 -2.46875 C 12.097656 -2.925781 12.785156 -3.5625 13.265625 -4.375 C 13.742188 -5.195312 13.984375 -6.144531 13.984375 -7.21875 C 13.984375 -8.289062 13.742188 -9.234375 13.265625 -10.046875 C 12.785156 -10.867188 12.097656 -11.503906 11.203125 -11.953125 C 10.316406 -12.410156 9.289062 -12.640625 8.125 -12.640625 L 4.234375 -12.640625 L 4.234375 -1.796875 Z M 8.125 -1.796875 "/></g></g></g><g fill="#ffffff" fill-opacity="1"><g transform="translate(239.945885, 264.967965)"><g><path d="M 2.171875 -14.4375 L 4.234375 -14.4375 L 4.234375 0 L 2.171875 0 Z M 2.171875 -14.4375 "/></g></g></g><g fill="#ffffff" fill-opacity="1"><g transform="translate(250.611778, 264.967965)"><g><path d="M 8.6875 0.171875 C 7.226562 0.171875 5.910156 -0.144531 4.734375 -0.78125 C 3.566406 -1.425781 2.648438 -2.3125 1.984375 -3.4375 C 1.316406 -4.570312 0.984375 -5.832031 0.984375 -7.21875 C 0.984375 -8.601562 1.316406 -9.859375 1.984375 -10.984375 C 2.648438 -12.117188 3.566406 -13.003906 4.734375 -13.640625 C 5.910156 -14.285156 7.226562 -14.609375 8.6875 -14.609375 C 10.125 -14.609375 11.425781 -14.285156 12.59375 -13.640625 C 13.769531 -13.003906 14.6875 -12.125 15.34375 -11 C 16 -9.882812 16.328125 -8.625 16.328125 -7.21875 C 16.328125 -5.8125 16 -4.546875 15.34375 -3.421875 C 14.6875 -2.304688 13.769531 -1.425781 12.59375 -0.78125 C 11.425781 -0.144531 10.125 0.171875 8.6875 0.171875 Z M 8.6875 -1.671875 C 9.738281 -1.671875 10.6875 -1.910156 11.53125 -2.390625 C 12.382812 -2.867188 13.050781 -3.53125 13.53125 -4.375 C 14.019531 -5.226562 14.265625 -6.175781 14.265625 -7.21875 C 14.265625 -8.257812 14.019531 -9.203125 13.53125 -10.046875 C 13.050781 -10.898438 12.382812 -11.566406 11.53125 -12.046875 C 10.6875 -12.523438 9.738281 -12.765625 8.6875 -12.765625 C 7.625 -12.765625 6.660156 -12.523438 5.796875 -12.046875 C 4.941406 -11.566406 4.269531 -10.898438 3.78125 -10.046875 C 3.289062 -9.203125 3.046875 -8.257812 3.046875 -7.21875 C 3.046875 -6.175781 3.289062 -5.226562 3.78125 -4.375 C 4.269531 -3.53125 4.941406 -2.867188 5.796875 -2.390625 C 6.660156 -1.910156 7.625 -1.671875 8.6875 -1.671875 Z M 8.6875 -1.671875 "/></g></g></g></svg>